<?xml version="1.0"?>
<svg xmlns="http://www.w3.org/2000/svg" id="Layer_1" enable-background="new 0 0 510.276 510.276" height="512px" viewBox="0 0 510.276 510.276" width="512px" class=""><g><path d="m429.702 132.896h-349.127c-29.95 0-54.315 24.365-54.315 54.315v207.777c0 29.949 24.366 54.315 54.315 54.315h219.213v29.114c0 29.594 36.748 43.014 55.918 20.771l42.991-49.885h31.004c29.95 0 54.315-24.366 54.315-54.315v-207.777c.001-29.95-24.365-54.315-54.314-54.315z" fill="#a0ed83" data-original="#A0ED83" class="active-path" style="fill:#FFFFFF" data-old_color="#a0ed83"/><path d="m141.767 0c-23.797 0-43.158 19.36-43.158 43.158s19.361 43.158 43.158 43.158 43.158-19.36 43.158-43.158-19.361-43.158-43.158-43.158z" fill="#f4dc4d" data-original="#F4DC4D" class="" style="fill:#FFFFFF" data-old_color="#f4dc4d"/><path d="m368.509 0c-23.797 0-43.158 19.36-43.158 43.158s19.361 43.158 43.158 43.158 43.158-19.36 43.158-43.158-19.36-43.158-43.158-43.158z" fill="#f4dc4d" data-original="#F4DC4D" class="" style="fill:#FFFFFF" data-old_color="#f4dc4d"/><path d="m386.78 276.282h-263.284c-9.015 0-16.323 7.309-16.323 16.323v67.284c0 9.016 7.308 16.323 16.323 16.323h263.284c9.015 0 16.323-7.308 16.323-16.323v-67.284c.001-9.014-7.308-16.323-16.323-16.323z" fill="#e8e8e8" data-original="#E8E8E8" class=""/><path d="m302.089 276.282h-93.901c-9.015 0-16.323 7.308-16.323 16.323v67.284c0 9.016 7.308 16.323 16.323 16.323h93.901c9.015 0 16.323-7.308 16.323-16.323v-67.284c0-9.015-7.308-16.323-16.323-16.323z" fill="#fff" data-original="#FFF" class=""/><path d="m429.702 132.896h-86.88l25.385-46.587c23.66.229 43.46-19.042 43.46-43.15.001-23.799-19.36-43.159-43.158-43.159-38.279 0-57.568 46.496-30.558 73.604l-32.308 59.292h-101.01l-32.308-59.292c27.001-27.1 7.741-73.604-30.558-73.604-23.797 0-43.158 19.36-43.158 43.158s19.361 43.158 43.158 43.158c.459 0-1.643-3.579 25.687 46.579h-86.88c-29.95 0-54.315 24.365-54.315 54.315v207.777c0 29.949 24.366 54.315 54.315 54.315h219.213v29.114c0 29.594 36.748 43.014 55.918 20.771l42.991-49.885h31.004c29.95 0 54.315-24.366 54.315-54.315v-207.776c.002-29.95-24.364-54.315-54.313-54.315zm-61.193-100.25c5.796 0 10.512 4.716 10.512 10.512s-4.716 10.512-10.512 10.512-10.512-4.716-10.512-10.512 4.716-10.512 10.512-10.512zm-237.254 10.512c0-5.796 4.716-10.512 10.512-10.512s10.512 4.716 10.512 10.512-4.716 10.512-10.512 10.512-10.512-4.716-10.512-10.512zm320.116 351.83c0 11.948-9.721 21.669-21.669 21.669h-38.485c-4.75 0-9.264 2.068-12.365 5.667l-46.417 53.857v-43.201c0-9.016-7.308-16.323-16.323-16.323h-235.537c-11.948 0-21.669-9.721-21.669-21.669v-207.777c0-11.948 9.721-21.669 21.669-21.669h349.127c11.948 0 21.669 9.721 21.669 21.669z" data-original="#000000" class="" style="fill:#135AFE" data-old_color="#000000"/><path d="m386.78 276.282h-263.284c-9.015 0-16.323 7.309-16.323 16.323v67.284c0 9.016 7.308 16.323 16.323 16.323h263.284c9.015 0 16.323-7.308 16.323-16.323v-67.284c.001-9.014-7.308-16.323-16.323-16.323zm-246.961 32.647h52.045v34.638h-52.045zm84.692 34.637v-34.638h61.255v34.638zm145.946 0h-52.045v-34.638h52.045z" data-original="#000000" class="" style="fill:#135AFE" data-old_color="#000000"/><path d="m158.799 237.488h45.876c9.015 0 16.323-7.308 16.323-16.323s-7.308-16.323-16.323-16.323h-45.876c-9.015 0-16.323 7.308-16.323 16.323s7.308 16.323 16.323 16.323z" data-original="#000000" class="" style="fill:#135AFE" data-old_color="#000000"/><path d="m305.602 237.488h45.876c9.015 0 16.323-7.308 16.323-16.323s-7.308-16.323-16.323-16.323h-45.876c-9.015 0-16.323 7.308-16.323 16.323s7.307 16.323 16.323 16.323z" data-original="#000000" class="" style="fill:#135AFE" data-old_color="#000000"/></g> </svg>
